# xmcd CD database file
#
# Track frame offsets:
#	150
#	40547
#	71805
#	99975
#	129420
#	154225
#	186180
#	212540
#	249587
#
# Disc length: 3750 seconds
#
# Revision: 0
# Processed by: cddbd v1.5.1PL2 Copyright (c) Steve Scherf et al.
# Submitted via: CDex 1.51
#
DISCID=750ea409
DTITLE=Grant Stewart - Estate
DYEAR=2006
DGENRE=Jazz
TTITLE0=Systems
TTITLE1=Soul Station
TTITLE2=Rain Check
TTITLE3=Estate
TTITLE4=Carving The Rock
TTITLE5=3 For Carson
TTITLE6=Jacqueline
TTITLE7=Cool Struttin'
TTITLE8=Felicidade
EXTD=YEAR: 2006
EXTT0=
EXTT1=
EXTT2=
EXTT3=
EXTT4=
EXTT5=
EXTT6=
EXTT7=
EXTT8=
PLAYORDER=
